HIERARCHY
ROOT Hips
{
    OFFSET 0.000000 0.000000 0.000000
    CHANNELS 6 Xposition Yposition Zposition Zrotation Xrotation Yrotation
    JOINT Spine
    {
        OFFSET -0.000000 14.517291 0.000000
        CHANNELS 3 Zrotation Xrotation Yrotation
        JOINT Spine1
        {
            OFFSET -0.000000 37.558300 0.000000
            CHANNELS 3 Zrotation Xrotation Yrotation
            JOINT Neck
            {
                OFFSET -0.000000 37.404057 3.400369
                CHANNELS 3 Zrotation Xrotation Yrotation
                JOINT Head
                {
                    OFFSET -0.000000 24.785618 -3.540803
                    CHANNELS 3 Zrotation Xrotation Yrotation
                    End Site
                    {
                        OFFSET -0.000000 35.408028 0.000000
                    }
                }
            }
            JOINT LeftShoulder
            {
                OFFSET 6.992933 33.973492 -0.192664
                CHANNELS 3 Zrotation Xrotation Yrotation
                JOINT LeftArm
                {
                    OFFSET 21.527611 0.000000 0.000000
                    CHANNELS 3 Zrotation Xrotation Yrotation
                    JOINT LeftForeArm
                    {
                        OFFSET 56.353916 0.000000 0.000000
                        CHANNELS 3 Zrotation Xrotation Yrotation
                        JOINT LeftHand
                        {
                            OFFSET 47.774071 0.000000 0.000000
                            CHANNELS 3 Zrotation Xrotation Yrotation
                            End Site
                            {
                                OFFSET 26.556021 0.000000 0.000000
                            }
                        }
                    }
                }
            }
            JOINT RightShoulder
            {
                OFFSET -7.065357 33.973492 -0.192664
                CHANNELS 3 Zrotation Xrotation Yrotation
                JOINT RightArm
                {
                    OFFSET -21.527611 0.000000 0.000000
                    CHANNELS 3 Zrotation Xrotation Yrotation
                    JOINT RightForeArm
                    {
                        OFFSET -56.353916 0.000000 0.000000
                        CHANNELS 3 Zrotation Xrotation Yrotation
                        JOINT RightHand
                        {
                            OFFSET -47.774071 0.000000 0.000000
                            CHANNELS 3 Zrotation Xrotation Yrotation
                            End Site
                            {
                                OFFSET -26.556021 0.000000 0.000000
                            }
                        }
                    }
                }
            }
        }
    }
    JOINT LeftUpLeg
    {
        OFFSET 17.704014 0.000000 0.000000
        CHANNELS 3 Zrotation Xrotation Yrotation
        JOINT LeftLeg
        {
            OFFSET -0.000000 -81.181816 0.000000
            CHANNELS 3 Zrotation Xrotation Yrotation
            JOINT LeftFoot
            {
                OFFSET -0.000000 -62.821102 0.000000
                CHANNELS 3 Zrotation Xrotation Yrotation
                JOINT LeftToeBase
                {
                    OFFSET -0.000000 -11.507608 26.556021
                    CHANNELS 3 Zrotation Xrotation Yrotation
                    End Site
                    {
                        OFFSET -0.000000 0.000000 7.081605
                    }
                }
            }
        }
    }
    JOINT RightUpLeg
    {
        OFFSET -17.704014 0.000000 0.000000
        CHANNELS 3 Zrotation Xrotation Yrotation
        JOINT RightLeg
        {
            OFFSET -0.000000 -81.181816 0.000000
            CHANNELS 3 Zrotation Xrotation Yrotation
            JOINT RightFoot
            {
                OFFSET -0.000000 -62.821102 0.000000
                CHANNELS 3 Zrotation Xrotation Yrotation
                JOINT RightToeBase
                {
                    OFFSET -0.000000 -11.507608 26.556021
                    CHANNELS 3 Zrotation Xrotation Yrotation
                    End Site
                    {
                        OFFSET -0.000000 0.000000 7.081605
                    }
                }
            }
        }
    }
}
MOTION
Frames:    14
Frame Time:    0.008333
-2.194124    153.665619    -28.986856    1.189718    2.932387    -2.193806    0.638085    3.207677    10.436744    -2.177690    -1.333919    3.460346    0.840396    1.513814    -6.871980    5.913889    -6.279858    -6.108388    -1.322272    5.464957    -7.069179    -42.077328    17.065954    -38.142467    3.614965    -35.369350    -123.693977    -10.092052    -28.646441    -13.204953    -3.121281    10.562809    3.475389    36.728870    9.993279    59.022804    -25.993435    -28.406296    60.080967    13.911356    -9.860088    34.562809    4.381019    -33.007755    -15.653836    -14.251334    27.171640    -15.492023    -1.304354    -0.709886    38.738110    0.000000    0.000000    0.000000    -6.834854    13.402046    -25.695105    2.622982    15.550496    -5.519795    9.761096    -24.690195    -0.353709    0.000000    0.000000    0.000000    
-2.222891    153.610138    -28.966421    1.187153    2.884065    -2.059120    0.650305    3.202947    10.435860    -2.155982    -1.323295    3.460616    0.829026    1.533482    -6.898824    5.863389    -6.268082    -6.145137    -1.334427    5.492880    -7.075116    -42.056255    17.114449    -38.186497    3.629234    -35.338730    -123.698318    -10.067004    -28.594070    -13.176813    -3.126272    10.557604    3.456430    36.757439    9.955038    58.911678    -25.999807    -28.402081    60.082153    13.924874    -9.844170    34.582401    4.349579    -33.016586    -15.676910    -14.307454    27.251909    -15.477151    -1.261768    -0.747598    38.657372    0.000000    0.000000    0.000000    -6.818875    13.425500    -25.811491    2.611641    15.688843    -5.507126    9.731146    -24.751881    -0.396098    0.000000    0.000000    0.000000    
-2.255778    153.552307    -28.945833    1.183427    2.834217    -1.927569    0.654630    3.199907    10.440862    -2.136374    -1.323171    3.462543    0.856162    1.587562    -6.920142    5.803421    -6.310433    -6.180239    -1.336505    5.495792    -7.097249    -42.069321    17.173504    -38.181374    3.596292    -35.263638    -123.740494    -10.046595    -28.566982    -13.142970    -3.114003    10.558380    3.443950    36.790012    9.891900    58.789898    -25.977715    -28.374792    60.095570    13.924342    -9.824128    34.575092    4.323716    -33.027824    -15.678752    -14.346585    27.346224    -15.509648    -1.241792    -0.807585    38.582905    0.000000    0.000000    0.000000    -6.797039    13.463600    -25.933979    2.592802    15.805508    -5.485359    9.723712    -24.817562    -0.395984    0.000000    0.000000    0.000000    
-2.287075    153.494873    -28.925222    1.176235    2.779168    -1.795531    0.676407    3.209437    10.440919    -2.138474    -1.310116    3.463008    0.867056    1.603994    -6.950348    5.763789    -6.333522    -6.219674    -1.326898    5.487154    -7.094437    -42.099617    17.219374    -38.177410    3.526481    -35.139893    -123.826668    -10.054039    -28.540598    -13.108337    -3.100964    10.570123    3.388197    36.797405    9.848350    58.741787    -25.982237    -28.363070    60.061394    13.903901    -9.823551    34.587517    4.299759    -33.038887    -15.668619    -14.389535    27.453712    -15.591739    -1.195457    -0.855489    38.554127    0.000000    0.000000    0.000000    -6.770959    13.519963    -26.026569    2.600004    15.896735    -5.498235    9.715480    -24.896454    -0.422786    0.000000    0.000000    0.000000    
-2.320168    153.436447    -28.908379    1.171807    2.734463    -1.678324    0.777992    3.167197    10.426097    -2.301047    -1.207918    3.459111    0.966619    1.602976    -6.960518    5.744105    -6.366920    -6.245906    -1.221557    5.457589    -7.075571    -42.148499    17.214054    -38.171795    3.449233    -34.975956    -123.895256    -10.143641    -28.472675    -13.136955    -2.989561    10.549288    3.393925    36.788872    9.783184    58.669041    -25.985895    -28.363152    60.012661    13.903485    -9.832634    34.617439    4.281272    -33.061878    -15.633129    -14.421992    27.568136    -15.672366    -1.169131    -0.905841    38.507137    0.000000    0.000000    0.000000    -6.746442    13.567206    -26.129963    2.592162    15.981670    -5.475369    9.722124    -24.982153    -0.426147    0.000000    0.000000    0.000000    
-2.358343    153.380157    -28.886105    1.158419    2.685565    -1.557291    0.791390    3.163887    10.428453    -2.286189    -1.187705    3.460582    0.950797    1.585036    -6.985867    5.758461    -6.331418    -6.269267    -1.231830    5.466633    -7.069076    -42.156971    17.248411    -38.163048    3.378842    -34.852661    -123.991669    -10.143267    -28.447044    -13.120746    -2.983238    10.554799    3.348421    36.798557    9.762479    58.621227    -26.029867    -28.374588    59.946434    13.941389    -9.826822    34.620426    4.269961    -33.080063    -15.616191    -14.458939    27.684952    -15.752151    -1.137476    -0.966216    38.469788    0.000000    0.000000    0.000000    -6.702974    13.624368    -26.259886    2.568891    16.055515    -5.498909    9.759904    -25.045130    -0.358794    0.000000    0.000000    0.000000    
-2.387767    153.315704    -28.848665    1.161984    2.638252    -1.419599    0.789357    3.138930    10.420973    -2.266126    -1.156924    3.458844    0.943846    1.598890    -7.010486    5.761745    -6.335216    -6.293033    -1.250098    5.481833    -7.074008    -42.164536    17.280310    -38.129211    3.308781    -34.744514    -124.086449    -10.124765    -28.441284    -13.086624    -2.978452    10.558572    3.313943    36.812180    9.748038    58.554947    -26.076756    -28.396996    59.883072    13.963434    -9.832467    34.647476    4.223460    -33.095055    -15.632116    -14.496496    27.795467    -15.800891    -1.085294    -1.026655    38.416672    0.000000    0.000000    0.000000    -6.684029    13.699305    -26.407080    2.565007    16.120871    -5.467705    9.785956    -25.123116    -0.363769    0.000000    0.000000    0.000000    
-2.427324    153.267090    -28.824276    1.149684    2.606247    -1.290800    0.799612    3.133389    10.418057    -2.255361    -1.165766    3.457885    0.928677    1.611210    -7.041102    5.793198    -6.331244    -6.316822    -1.271568    5.459028    -7.060822    -42.169056    17.385073    -38.083931    3.256833    -34.684818    -124.171318    -10.133167    -28.453566    -13.080484    -2.973462    10.554707    3.282338    36.851528    9.740417    58.480095    -26.119179    -28.401110    59.838436    13.946630    -9.833761    34.621017    4.200432    -33.126759    -15.640695    -14.528984    27.903280    -15.846495    -1.052416    -1.065128    38.365364    0.000000    0.000000    0.000000    -6.628616    13.737848    -26.574467    2.515873    16.185972    -5.487154    9.838818    -25.156458    -0.284424    0.000000    0.000000    0.000000    
-2.461839    153.220276    -28.801649    1.133373    2.581470    -1.166838    0.818420    3.131438    10.422088    -2.255424    -1.191656    3.458897    0.891399    1.630334    -7.081661    5.878422    -6.324069    -6.337582    -1.289621    5.452470    -7.063331    -42.198112    17.426029    -38.016308    3.069231    -34.392326    -124.361824    -9.661977    -28.494719    -12.901020    -2.961813    10.563905    3.251388    36.905460    9.720272    58.405750    -26.157881    -28.405064    59.794888    13.958374    -9.825831    34.610641    4.178987    -33.163982    -15.643558    -14.553193    28.006264    -15.886228    -1.021609    -1.101140    38.312222    0.000000    0.000000    0.000000    -6.562066    13.766491    -26.756462    2.432156    16.244637    -5.450660    9.929907    -25.182682    -0.223389    0.000000    0.000000    0.000000    
-2.495060    153.178101    -28.779427    1.106022    2.560138    -1.047062    0.847273    3.118753    10.416698    -2.248900    -1.205368    3.457120    0.860606    1.672525    -7.116007    5.947075    -6.359478    -6.353678    -1.308556    5.472733    -7.059023    -42.235085    17.441494    -37.955978    3.010918    -34.261993    -124.455246    -9.683330    -28.443037    -12.877385    -2.949933    10.566405    3.238201    36.918400    9.737507    58.335354    -26.253920    -28.451714    59.706440    13.972643    -9.840909    34.624428    4.163526    -33.207104    -15.660832    -14.576988    28.116846    -15.898729    -0.993785    -1.137990    38.247669    0.000000    0.000000    0.000000    -6.468100    13.783706    -27.045231    2.280534    16.290855    -5.400022    10.064677    -25.166107    -0.074396    0.000000    0.000000    0.000000    
-2.527122    153.136978    -28.759930    1.083834    2.542341    -0.945069    0.867176    3.118439    10.421862    -2.243127    -1.242397    3.458351    0.854248    1.679428    -7.151870    5.969615    -6.334273    -6.386995    -1.331133    5.498181    -7.066810    -42.258381    17.493841    -37.871075    2.987609    -34.192493    -124.543228    -9.628002    -28.406694    -12.846937    -2.943755    10.592958    3.216291    36.953808    9.741591    58.287144    -26.357937    -28.481239    59.619148    13.984144    -9.837313    34.603241    4.150432    -33.250046    -15.664473    -14.576338    28.232964    -16.015154    -0.992995    -1.195923    38.262451    0.000000    0.000000    0.000000    -6.382412    13.788749    -27.313332    2.121895    16.338577    -5.352064    10.210029    -25.144594    0.065276    0.000000    0.000000    0.000000    
-2.558920    153.098953    -28.741146    1.058687    2.524969    -0.841374    0.884884    3.113153    10.418048    -2.235562    -1.262392    3.456915    0.828825    1.681697    -7.187267    6.031389    -6.320219    -6.409083    -1.340589    5.525802    -7.038321    -42.301800    17.524845    -37.821392    2.929707    -34.099922    -124.640480    -9.628606    -28.398371    -12.806018    -2.933854    10.610932    3.191579    36.974979    9.751616    58.250816    -26.439709    -28.529161    59.543453    13.986125    -9.861530    34.625462    4.139159    -33.297119    -15.677213    -14.597712    28.343094    -16.047152    -0.977262    -1.232738    38.226582    0.000000    0.000000    0.000000    -6.289371    13.793427    -27.593702    1.934528    16.383097    -5.252860    10.377709    -25.122185    0.203381    0.000000    0.000000    0.000000    
-2.585211    153.061157    -28.726498    1.037087    2.514559    -0.746790    0.913153    3.103578    10.419016    -2.255641    -1.281712    3.456880    0.816026    1.682364    -7.223795    6.097676    -6.298091    -6.433589    -1.336740    5.538961    -7.029472    -42.381706    17.578249    -37.792759    2.924976    -34.084553    -124.694252    -9.701431    -28.382380    -12.734078    -2.908600    10.635541    3.169862    37.004131    9.743453    58.216515    -26.510853    -28.574295    59.482544    13.970720    -9.895016    34.609127    4.120154    -33.343380    -15.676754    -14.586229    28.450251    -16.122461    -0.967709    -1.279432    38.204479    0.000000    0.000000    0.000000    -6.216255    13.788314    -27.856310    1.788122    16.441856    -5.188621    10.522643    -25.116041    0.353587    0.000000    0.000000    0.000000    
-2.623658    153.018814    -28.715055    1.006170    2.467282    -0.641711    0.928987    3.148579    10.401111    -2.255984    -1.312131    3.450601    0.805438    1.661000    -7.254961    6.153295    -6.265266    -6.455639    -1.334120    5.545373    -6.993118    -42.446712    17.578234    -37.722214    2.839577    -33.934467    -124.783722    -9.689958    -28.360792    -12.711789    -2.889506    10.644570    3.143057    37.013561    9.771585    58.201550    -26.615416    -28.642746    59.386810    14.007926    -9.924073    34.631687    4.113425    -33.361851    -15.710924    -14.610167    28.556471    -16.170361    -0.948394    -1.321764    38.192150    0.000000    0.000000    0.000000    -6.130097    13.826384    -28.086878    1.673805    16.488605    -5.163107    10.650379    -25.109310    0.460264    0.000000    0.000000    0.000000    
